solid OpenSCAD_Model
  facet normal 0 0 -1
    outer loop
      vertex 10 -10 0
      vertex -10 -10 0
      vertex -10 10 0
    endloop
  endfacet
  facet normal 0 0 -1
    outer loop
      vertex 10 -10 0
      vertex -10 10 0
      vertex 10 10 0
    endloop
  endfacet
  facet normal 0 -0.83205 0.5547
    outer loop
      vertex 10 -10 0
      vertex 0 0 15
      vertex -10 -10 0
    endloop
  endfacet
  facet normal 0.83205 0 0.5547
    outer loop
      vertex 10 10 0
      vertex 0 0 15
      vertex 10 -10 0
    endloop
  endfacet
  facet normal -0 0.83205 0.5547
    outer loop
      vertex -10 10 0
      vertex 0 0 15
      vertex 10 10 0
    endloop
  endfacet
  facet normal -0.83205 0 0.5547
    outer loop
      vertex -10 -10 0
      vertex 0 0 15
      vertex -10 10 0
    endloop
  endfacet
endsolid OpenSCAD_Model
